<svg width="22" height="22" fill="none" xmlns="http://www.w3.org/2000/svg"><path d="M14 21.75H8C2.57 21.75.25 19.43.25 14V8C.25 2.57 2.57.25 8 .25h6c5.43 0 7.75 2.32 7.75 7.75v6c0 5.43-2.32 7.75-7.75 7.75zm-6-20C3.39 1.75 1.75 3.39 1.75 8v6c0 4.61 1.64 6.25 6.25 6.25h6c4.61 0 6.25-1.64 6.25-6.25V8c0-4.61-1.64-6.25-6.25-6.25H8z" fill="#9197B3"/><path d="M11 12.08c-.13 0-.26-.03-.38-.1l-5.3-3.06a.742.742 0 01-.27-1.02c.21-.36.67-.48 1.02-.27l4.92 2.85 4.89-2.83c.36-.21.82-.08 1.02.27.2.35.08.82-.27 1.02l-5.26 3.04c-.11.06-.24.1-.37.1z" fill="#9197B3"/><path d="M11 17.52c-.41 0-.75-.34-.75-.75v-5.44c0-.41.34-.75.75-.75s.75.34.75.75v5.44c0 .41-.34.75-.75.75z" fill="#9197B3"/><path d="M11 17.75c-.58 0-1.15-.13-1.61-.38l-3.2-1.78c-.96-.53-1.7-1.8-1.7-2.9V9.3c0-1.09.75-2.36 1.7-2.9l3.2-1.78c.92-.51 2.3-.51 3.22 0l3.2 1.78c.96.53 1.7 1.8 1.7 2.9v3.39c0 1.09-.75 2.36-1.7 2.9l-3.2 1.78c-.46.26-1.03.38-1.61.38zm0-12c-.33 0-.65.06-.88.19l-3.2 1.78c-.49.27-.93 1.03-.93 1.58v3.39c0 .56.44 1.31.93 1.58l3.2 1.78c.46.26 1.3.26 1.76 0l3.2-1.78c.49-.27.93-1.03.93-1.58V9.3c0-.56-.44-1.31-.93-1.58l-3.2-1.78c-.23-.13-.55-.19-.88-.19z" fill="#9197B3"/></svg>