<svg width="31" height="33" fill="none" xmlns="http://www.w3.org/2000/svg"><path d="M15.5 32.888c-1.033 0-2.081-.232-2.898-.71l-8.48-4.887C.67 24.963.455 24.61.455 20.955v-8.91c0-3.654.2-4.01 3.592-6.306l8.54-4.933c1.62-.94 4.163-.94 5.782 0l8.51 4.902c3.453 2.328 3.669 2.683 3.669 6.336v8.896c0 3.653-.2 4.008-3.592 6.305l-8.541 4.933c-.833.478-1.88.71-2.914.71zm0-30.464c-.647 0-1.28.124-1.726.386l-8.48 4.902c-2.512 1.696-2.512 1.696-2.512 4.332v8.896c0 2.636 0 2.636 2.574 4.378l8.418 4.856c.91.524 2.559.524 3.468 0l8.48-4.902c2.497-1.696 2.497-1.696 2.497-4.332v-8.896c0-2.636 0-2.636-2.575-4.378L17.227 2.81c-.447-.262-1.08-.386-1.727-.386z" fill="#000"/><path d="M15.5 22.281A5.783 5.783 0 019.719 16.5a5.783 5.783 0 015.781-5.781 5.783 5.783 0 015.781 5.781 5.783 5.783 0 01-5.781 5.781zm0-9.25a3.474 3.474 0 00-3.469 3.469 3.474 3.474 0 003.469 3.469 3.474 3.474 0 003.469-3.469 3.474 3.474 0 00-3.469-3.469z" fill="#000"/></svg>