<svg width="22" height="22" fill="none" xmlns="http://www.w3.org/2000/svg"><path d="M8 21h6c5 0 7-2 7-7V8c0-5-2-7-7-7H8C3 1 1 3 1 8v6c0 5 2 7 7 7z" stroke="#9197B3" stroke-width="1.5" stroke-linecap="round" stroke-linejoin="round"/><path d="M15.28 12.61a4.147 4.147 0 01-4.18 1.03l-2.59 2.58c-.18.19-.55.31-.82.27l-1.2-.16c-.4-.05-.76-.43-.82-.82l-.16-1.2c-.04-.26.09-.63.27-.82l2.58-2.58c-.44-1.43-.1-3.05 1.03-4.18 1.62-1.62 4.26-1.62 5.89 0 1.62 1.61 1.62 4.25 0 5.88zm-5.83 2.67l-.85-.86" stroke="#9197B3" stroke-width="1.5" stroke-miterlimit="10" stroke-linecap="round" stroke-linejoin="round"/><path d="M12.395 9.7h.008" stroke="#9197B3" stroke-width="2" stroke-linecap="round" stroke-linejoin="round"/></svg>