<svg width="22" height="22" fill="none" xmlns="http://www.w3.org/2000/svg"><path d="M11 21.75c-.63 0-1.22-.24-1.66-.69l-1.52-1.52c-.12-.12-.44-.25-.6-.25H5.06c-1.3 0-2.35-1.05-2.35-2.35v-2.16c0-.16-.13-.48-.25-.6L.94 12.66C.5 12.22.25 11.63.25 11c0-.63.24-1.22.69-1.66l1.52-1.52c.12-.12.25-.44.25-.6V5.06c0-1.3 1.05-2.35 2.35-2.35h2.16c.16 0 .48-.13.6-.25L9.34.94c.88-.88 2.44-.88 3.32 0l1.52 1.52c.12.12.44.25.6.25h2.16c1.3 0 2.35 1.05 2.35 2.35v2.16c0 .16.13.48.25.6l1.52 1.52c.44.44.69 1.03.69 1.66 0 .63-.24 1.22-.69 1.66l-1.52 1.52c-.12.12-.25.44-.25.6v2.16c0 1.3-1.05 2.35-2.35 2.35h-2.16c-.16 0-.48.13-.6.25l-1.52 1.52c-.44.45-1.03.69-1.66.69zm-7.48-8.63c.4.4.69 1.1.69 1.66v2.16c0 .47.38.85.85.85h2.16c.56 0 1.26.29 1.66.69L10.4 20c.32.32.88.32 1.2 0l1.52-1.52c.4-.4 1.1-.69 1.66-.69h2.16c.47 0 .85-.38.85-.85v-2.16c0-.56.29-1.26.69-1.66L20 11.6a.84.84 0 00.25-.6.84.84 0 00-.25-.6l-1.52-1.52c-.4-.4-.69-1.1-.69-1.66V5.06a.85.85 0 00-.85-.85h-2.16c-.56 0-1.26-.29-1.66-.69L11.6 2a.87.87 0 00-1.2 0L8.88 3.52c-.4.4-1.1.69-1.66.69H5.06a.85.85 0 00-.85.85v2.16c0 .56-.29 1.26-.69 1.66L2 10.4a.84.84 0 00-.25.6c0 .23.09.44.25.6l1.52 1.52z" fill="#9197B3"/><path d="M14 15c-.56 0-1.01-.45-1.01-1s.45-1 1-1 1 .45 1 1-.44 1-.99 1zM8.01 9C7.45 9 7 8.55 7 8s.45-1 1-1 1 .45 1 1-.44 1-.99 1zM8 14.75c-.19 0-.38-.07-.53-.22a.754.754 0 010-1.06l6-6c.29-.29.77-.29 1.06 0 .29.29.29.77 0 1.06l-6 6c-.15.15-.34.22-.53.22z" fill="#9197B3"/></svg>