<svg width="22" height="22" fill="none" xmlns="http://www.w3.org/2000/svg"><path d="M14 21.75H8c-1.32 0-2.42-.13-3.35-.41a.767.767 0 01-.54-.78c.25-2.99 3.28-5.34 6.89-5.34s6.63 2.34 6.89 5.34c.03.36-.19.68-.54.78-.93.28-2.03.41-3.35.41zm-8.28-1.69c.66.13 1.41.19 2.28.19h6c.87 0 1.62-.06 2.28-.19-.53-1.92-2.72-3.34-5.28-3.34s-4.75 1.42-5.28 3.34z" fill="#fff"/><path d="M14 1H8C3 1 1 3 1 8v6c0 3.78 1.14 5.85 3.86 6.62.22-2.6 2.89-4.65 6.14-4.65 3.25 0 5.92 2.05 6.14 4.65C19.86 19.85 21 17.78 21 14V8c0-5-2-7-7-7zm-3 12.17c-1.98 0-3.58-1.61-3.58-3.59C7.42 7.6 9.02 6 11 6s3.58 1.6 3.58 3.58-1.6 3.59-3.58 3.59z" stroke="#fff" stroke-width="1.5" stroke-linecap="round" stroke-linejoin="round"/><path d="M11 13.92a4.34 4.34 0 01-4.33-4.34c0-2.39 1.94-4.33 4.33-4.33s4.33 1.94 4.33 4.33A4.34 4.34 0 0111 13.92zm0-7.17a2.836 2.836 0 000 5.67 2.836 2.836 0 000-5.67z" fill="#fff"/></svg>